<?xml version="1.0" standalone="no"?>
<!DOCTYPE svg PUBLIC "-//W3C//DTD SVG 20010904//EN"
 "http://www.w3.org/TR/2001/REC-SVG-20010904/DTD/svg10.dtd">
<svg version="1.0" xmlns="http://www.w3.org/2000/svg"
 width="512.000000pt" height="512.000000pt" viewBox="0 0 512.000000 512.000000"
 preserveAspectRatio="xMidYMid meet">
<metadata>
Created by potrace 1.11, written by Peter Selinger 2001-2013
</metadata>
<g transform="translate(0.000000,512.000000) scale(0.100000,-0.100000)"
fill="#000000" stroke="none">
<path d="M1345 4290 c-149 -30 -246 -69 -361 -146 -219 -145 -352 -377 -399
-694 -30 -198 -13 -496 39 -697 145 -560 739 -1257 1449 -1703 176 -110 440
-240 488 -240 33 0 306 132 428 208 185 114 415 282 570 417 97 85 298 283
359 354 26 30 54 62 62 71 66 70 193 244 275 374 131 210 234 464 260 641 4
22 8 47 10 55 22 82 22 417 0 530 -3 14 -10 50 -15 82 -34 184 -138 378 -273
505 -126 120 -322 210 -517 239 -131 19 -358 6 -512 -30 -154 -36 -424 -138
-528 -201 -19 -11 -52 -29 -72 -40 l-37 -19 -138 71 c-201 104 -408 182 -548
208 -16 2 -42 7 -56 10 -152 29 -354 31 -484 5z"/>
</g>
</svg>
